HIERARCHY
ROOT hip
{
  OFFSET 0 0 0
  CHANNELS 6 Xposition Yposition Zposition Zrotation Yrotation Xrotation
  JOINT abdomen
  {
    OFFSET 0 20.6881 -0.73152
    CHANNELS 3 Zrotation Xrotation Yrotation
    JOINT chest
    {
      OFFSET 0 11.7043 -0.48768
      CHANNELS 3 Zrotation Xrotation Yrotation
      JOINT neck
      {
        OFFSET 0 22.1894 -2.19456
        CHANNELS 3 Zrotation Xrotation Yrotation
        JOINT head
        {
          OFFSET -0.24384 7.07133 1.2192
          CHANNELS 3 Zrotation Xrotation Yrotation
          JOINT leftEye
          {
            OFFSET 4.14528 8.04674 8.04672
            CHANNELS 3 Zrotation Xrotation Yrotation
            End Site
            {
              OFFSET 1 0 0
            }
          }
          JOINT rightEye
          {
            OFFSET -3.6576 8.04674 8.04672
            CHANNELS 3 Zrotation Xrotation Yrotation
            End Site
            {
              OFFSET 1 0 0
            }
          }
        }
      }
      JOINT rCollar
      {
        OFFSET -2.68224 19.2634 -4.8768
        CHANNELS 3 Zrotation Xrotation Yrotation
        JOINT rShldr
        {
          OFFSET -8.77824 -1.95073 1.46304
          CHANNELS 3 Zrotation Xrotation Yrotation
          JOINT rForeArm
          {
            OFFSET -28.1742 -1.7115 0.48768
            CHANNELS 3 Zrotation Xrotation Yrotation
            JOINT rHand
            {
              OFFSET -22.5879 0.773209 7.07136
              CHANNELS 3 Zrotation Xrotation Yrotation
              JOINT rThumb1
              {
                OFFSET -1.2192 -0.487915 3.41376
                CHANNELS 3 Zrotation Xrotation Yrotation
                JOINT rThumb2
                {
                  OFFSET -3.37035 -0.52449 3.41376
                  CHANNELS 3 Zrotation Xrotation Yrotation
                  End Site
                  {
                    OFFSET -1.78271 -1.18214 1.43049
                  }
                }
              }
              JOINT rIndex1
              {
                OFFSET -7.75947 0.938293 5.60832
                CHANNELS 3 Zrotation Xrotation Yrotation
                JOINT rIndex2
                {
                  OFFSET -2.54057 -0.884171 1.56538
                  CHANNELS 3 Zrotation Xrotation Yrotation
                  End Site
                  {
                    OFFSET -1.62519 -0.234802 1.16502
                  }
                }
              }
              JOINT rMid1
              {
                OFFSET -8.24714 1.18213 3.41376
                CHANNELS 3 Zrotation Xrotation Yrotation
                JOINT rMid2
                {
                  OFFSET -3.10165 -0.590103 1.0647
                  CHANNELS 3 Zrotation Xrotation Yrotation
                  End Site
                  {
                    OFFSET -2.48547 -0.328903 0.83742
                  }
                }
              }
              JOINT rRing1
              {
                OFFSET -8.82822 0.546677 1.51678
                CHANNELS 3 Zrotation Xrotation Yrotation
                JOINT rRing2
                {
                  OFFSET -2.60934 -0.819778 -0.0198488
                  CHANNELS 3 Zrotation Xrotation Yrotation
                  End Site
                  {
                    OFFSET -2.33842 -0.294052 0.168128
                  }
                }
              }
              JOINT rPinky1
              {
                OFFSET -8.27202 -0.0477905 -0.4584
                CHANNELS 3 Zrotation Xrotation Yrotation
                JOINT rPinky2
                {
                  OFFSET -1.82734 -0.647385 -0.700984
                  CHANNELS 3 Zrotation Xrotation Yrotation
                  End Site
                  {
                    OFFSET -1.69225 -0.51767 -0.607171
                  }
                }
              }
            }
          }
        }
      }
      JOINT lCollar
      {
        OFFSET 2.68224 19.2634 -4.8768
        CHANNELS 3 Zrotation Xrotation Yrotation
        JOINT lShldr
        {
          OFFSET 8.77824 -1.95073 1.46304
          CHANNELS 3 Zrotation Xrotation Yrotation
          JOINT lForeArm
          {
            OFFSET 28.1742 -1.7115 0.48768
            CHANNELS 3 Zrotation Xrotation Yrotation
            JOINT lHand
            {
              OFFSET 22.5879 0.773209 7.07136
              CHANNELS 3 Zrotation Xrotation Yrotation
              JOINT lThumb1
              {
                OFFSET 1.2192 -0.487915 3.41376
                CHANNELS 3 Zrotation Xrotation Yrotation
                JOINT lThumb2
                {
                  OFFSET 3.37035 -0.52449 3.41376
                  CHANNELS 3 Zrotation Xrotation Yrotation
                  End Site
                  {
                    OFFSET 1.78271 -1.18214 1.43049
                  }
                }
              }
              JOINT lIndex1
              {
                OFFSET 7.75947 0.938293 5.60832
                CHANNELS 3 Zrotation Xrotation Yrotation
                JOINT lIndex2
                {
                  OFFSET 2.54057 -0.884171 1.56538
                  CHANNELS 3 Zrotation Xrotation Yrotation
                  End Site
                  {
                    OFFSET 1.62519 -0.234802 1.16502
                  }
                }
              }
              JOINT lMid1
              {
                OFFSET 8.24714 1.18213 3.41376
                CHANNELS 3 Zrotation Xrotation Yrotation
                JOINT lMid2
                {
                  OFFSET 3.10165 -0.590103 1.0647
                  CHANNELS 3 Zrotation Xrotation Yrotation
                  End Site
                  {
                    OFFSET 2.48547 -0.328903 0.83742
                  }
                }
              }
              JOINT lRing1
              {
                OFFSET 8.82822 0.546677 1.51678
                CHANNELS 3 Zrotation Xrotation Yrotation
                JOINT lRing2
                {
                  OFFSET 2.60934 -0.819778 -0.0198488
                  CHANNELS 3 Zrotation Xrotation Yrotation
                  End Site
                  {
                    OFFSET 2.33842 -0.294052 0.168128
                  }
                }
              }
              JOINT lPinky1
              {
                OFFSET 8.27202 -0.0477905 -0.4584
                CHANNELS 3 Zrotation Xrotation Yrotation
                JOINT lPinky2
                {
                  OFFSET 1.82734 -0.647385 -0.700984
                  CHANNELS 3 Zrotation Xrotation Yrotation
                  End Site
                  {
                    OFFSET 1.69225 -0.51767 -0.607171
                  }
                }
              }
            }
          }
        }
      }
    }
  }
  JOINT rButtock
  {
    OFFSET -8.77824 4.35084 1.2192
    CHANNELS 3 Zrotation Xrotation Yrotation
    JOINT rThigh
    {
      OFFSET 0 -1.70687 -2.19456
      CHANNELS 3 Zrotation Xrotation Yrotation
      JOINT rShin
      {
        OFFSET 0 -36.8199 0.73152
        CHANNELS 3 Zrotation Xrotation Yrotation
        JOINT rFoot
        {
          OFFSET 0.73152 -45.1104 -5.12064
          CHANNELS 3 Zrotation Xrotation Yrotation
          End Site
          {
            OFFSET -1.1221 -3.69964 12.103
          }
        }
      }
    }
  }
  JOINT lButtock
  {
    OFFSET 8.77824 4.35084 1.2192
    CHANNELS 3 Zrotation Xrotation Yrotation
    JOINT lThigh
    {
      OFFSET 0 -1.70687 -2.19456
      CHANNELS 3 Zrotation Xrotation Yrotation
      JOINT lShin
      {
        OFFSET 0 -36.8199 0.73152
        CHANNELS 3 Zrotation Xrotation Yrotation
        JOINT lFoot
        {
          OFFSET -0.73152 -45.1104 -5.12064
          CHANNELS 3 Zrotation Xrotation Yrotation
          End Site
          {
            OFFSET 1.1221 -3.69964 12.103
          }
        }
      }
    }
  }
}
MOTION
Frames:	7
Frame Time:	0.00833333
49.7603 68.2329 -20.1394 -0.9255 -39.2512 24.3166 3.50231 45.0302 -2.64001 -2.9741 -11.9511 -0.592289 1.63377 7.50196 0.475311 -10.2622 0.014477 0.249805 -0.0 0.0 0.0 -0.0 0.0 0.0 -3.61074e-13 -1.11542e-14 2.0667e-13 64.2113 26.3428 18.6463 -16.2886 -55.7436 122.61 -0.628241 21.924 3.24269 -1.32181e-09 1.84629e-10 -1.18003e-09 -2.30229e-09 4.05187e-10 -2.01408e-09 -1.32181e-09 1.8464e-10 -1.18005e-09 7.73091 5.47488 0.417314 -1.32181e-09 1.8463e-10 -1.18003e-09 2.90554 0.965183 0.102902 -1.3218e-09 1.84631e-10 -1.18003e-09 10.2786 0.731801 0.0259123 -1.32181e-09 1.84632e-10 -1.18003e-09 2.22167 -0.733487 -0.20892 -3.61146e-13 -1.12094e-14 2.06586e-13 -77.5944 8.46548 0.955867 17.7626 -54.8919 -119.405 0.0274837 -4.72753 0.665938 -1.25315e-09 4.17911e-09 1.57554e-10 -2.16315e-09 7.20229e-09 2.70229e-10 -1.25317e-09 4.17911e-09 1.57569e-10 -7.73091 5.47488 -0.417314 -1.25315e-09 4.17909e-09 1.5756e-10 -2.90554 0.965183 -0.102902 -1.25317e-09 4.17914e-09 1.57567e-10 -10.2786 0.731801 -0.0259123 -1.25314e-09 4.1791e-09 1.57551e-10 -2.22167 -0.733487 0.20892 -2.03217e-16 0.0 -3.88251e-19 -60.6242 -59.0908 -72.4224 -6.34936 81.4961 6.54456 -6.48936 -22.8771 -11.3709 2.03217e-16 0.0 3.88251e-19 64.5508 -69.4292 75.7747 3.02342 75.0432 -3.53581 -0.607577 -12.8021 -3.5228
49.8084 68.113 -20.2095 -0.8316 -39.1533 24.4713 3.50985 45.1363 -2.65528 -2.99377 -11.9617 -0.595229 1.60952 7.51016 0.46045 -10.229 -0.0651279 0.222268 -0.0 0.0 0.0 -0.0 0.0 0.0 -6.45609e-13 2.19495e-13 5.69419e-13 64.2344 26.3184 18.6597 -16.2965 -55.7394 122.593 -0.630535 21.9615 3.24882 -9.27924e-10 -1.69151e-09 -1.71697e-09 -1.62565e-09 -2.84775e-09 -2.95048e-09 -9.27922e-10 -1.6915e-09 -1.71698e-09 7.73091 5.47488 0.417314 -9.27923e-10 -1.69151e-09 -1.71697e-09 2.90554 0.965183 0.102902 -9.27912e-10 -1.69151e-09 -1.71697e-09 10.2786 0.731801 0.0259123 -9.27927e-10 -1.69151e-09 -1.71697e-09 2.22167 -0.733487 -0.20892 -6.45689e-13 2.19422e-13 5.69319e-13 -77.5953 8.41403 0.973408 17.7368 -54.9078 -119.462 0.0280316 -4.77377 0.672482 -2.08204e-09 7.51217e-10 -1.46801e-09 -3.58203e-09 1.19959e-09 -2.54945e-09 -2.08206e-09 7.51229e-10 -1.468e-09 -7.73091 5.47488 -0.417314 -2.08204e-09 7.51202e-10 -1.46801e-09 -2.90554 0.965183 -0.102902 -2.08206e-09 7.51257e-10 -1.468e-09 -10.2786 0.731801 -0.0259123 -2.08203e-09 7.51211e-10 -1.46802e-09 -2.22167 -0.733487 0.20892 -2.03217e-16 0.0 -3.88251e-19 -61.433 -59.1967 -73.2337 -6.58998 81.764 6.7853 -6.53791 -22.9134 -11.4454 2.03217e-16 0.0 3.88251e-19 65.4799 -69.7182 76.7133 3.07472 75.2316 -3.58664 -0.592404 -12.7786 -3.47385
49.853 67.9973 -20.2799 -0.7441 -39.0491 24.6205 3.52908 45.2648 -2.65131 -3.03037 -11.9714 -0.593828 1.61244 7.50569 0.434803 -10.2115 -0.139903 0.17124 -0.0 0.0 0.0 -0.0 0.0 0.0 -5.05207e-13 4.14475e-13 6.33017e-13 64.2724 26.2612 18.6678 -16.304 -55.7353 122.577 -0.631871 21.9832 3.25238 4.49864e-10 -1.85343e-09 -4.43839e-10 7.75396e-10 -3.21526e-09 -7.74274e-10 4.49868e-10 -1.85342e-09 -4.43855e-10 7.73091 5.47488 0.417314 4.49864e-10 -1.85343e-09 -4.43842e-10 2.90554 0.965183 0.102902 4.49876e-10 -1.85343e-09 -4.43842e-10 10.2786 0.731801 0.0259123 4.49861e-10 -1.85342e-09 -4.43837e-10 2.22167 -0.733487 -0.20892 -5.05325e-13 4.14408e-13 6.32876e-13 -77.5692 8.40395 0.959297 17.7175 -54.9196 -119.505 0.0285502 -4.81705 0.678608 -8.51902e-10 -4.04921e-09 -1.76696e-09 -1.45473e-09 -7.08839e-09 -3.06396e-09 -8.51918e-10 -4.0492e-09 -1.76695e-09 -7.73091 5.47488 -0.417314 -8.51903e-10 -4.04922e-09 -1.76696e-09 -2.90554 0.965183 -0.102902 -8.5192e-10 -4.04918e-09 -1.76695e-09 -10.2786 0.731801 -0.0259123 -8.51899e-10 -4.04922e-09 -1.76697e-09 -2.22167 -0.733487 0.20892 -2.03217e-16 0.0 -3.88251e-19 -62.1977 -59.2958 -73.9976 -6.8389 82.0238 7.03434 -6.58219 -22.9594 -11.5087 2.03217e-16 0.0 3.88251e-19 66.3939 -69.9961 77.6255 3.1253 75.4123 -3.63661 -0.577069 -12.753 -3.42488
49.8939 67.8839 -20.3495 -0.6632 -38.9402 24.7655 3.55655 45.4088 -2.63709 -3.07928 -11.982 -0.59027 1.63223 7.49258 0.401837 -10.2034 -0.211623 0.104469 -0.0 0.0 0.0 -0.0 0.0 0.0 -1.19201e-13 6.07708e-13 5.39825e-13 64.32 26.1846 18.6749 -16.3126 -55.7306 122.559 -0.632585 21.9948 3.25428 2.52311e-09 -1.18303e-09 1.92187e-09 4.39326e-09 -2.19595e-09 3.27877e-09 2.52311e-09 -1.18302e-09 1.92185e-09 7.73091 5.47488 0.417314 2.52311e-09 -1.18303e-09 1.92187e-09 2.90554 0.965183 0.102902 2.52312e-09 -1.18303e-09 1.92187e-09 10.2786 0.731801 0.0259123 2.5231e-09 -1.18303e-09 1.92188e-09 2.22167 -0.733487 -0.20892 -1.19376e-13 6.07661e-13 5.39623e-13 -77.5235 8.42274 0.923465 17.7015 -54.9294 -119.54 0.0290945 -4.86183 0.684948 1.57532e-09 -1.00005e-08 -1.39702e-09 2.73485e-09 -1.73181e-08 -2.41575e-09 1.57531e-09 -1.00005e-08 -1.39701e-09 -7.73091 5.47488 -0.417314 1.57532e-09 -1.00005e-08 -1.39701e-09 -2.90554 0.965183 -0.102902 1.57531e-09 -1.00004e-08 -1.39701e-09 -10.2786 0.731801 -0.0259123 1.57532e-09 -1.00005e-08 -1.39702e-09 -2.22167 -0.733487 0.20892 -2.03217e-16 0.0 -3.88251e-19 -62.93 -59.3925 -74.7241 -7.09726 82.2765 7.29283 -6.6271 -23.0116 -11.5711 2.03217e-16 0.0 3.88251e-19 67.2988 -70.2662 78.5213 3.17519 75.5858 -3.68577 -0.561585 -12.726 -3.37576
49.9305 67.774 -20.4202 -0.5918 -38.8259 24.9064 3.59351 45.5568 -2.65913 -3.08331 -11.9925 -0.59043 1.60441 7.4855 0.381685 -10.1935 -0.293194 0.0671704 -0.0 0.0 0.0 -0.0 0.0 0.0 2.93838e-13 7.67443e-13 4.04191e-13 64.3087 26.1329 18.7081 -16.3251 -55.7238 122.532 -0.632548 21.9942 3.25419 4.5082e-09 -4.07708e-10 4.25461e-09 7.85792e-09 -9.90156e-10 7.27646e-09 4.50821e-09 -4.07711e-10 4.2546e-09 7.73091 5.47488 0.417314 4.5082e-09 -4.0771e-10 4.25461e-09 2.90554 0.965183 0.102902 4.50821e-09 -4.07715e-10 4.25461e-09 10.2786 0.731801 0.0259123 4.5082e-09 -4.07708e-10 4.25462e-09 2.22167 -0.733487 -0.20892 2.93612e-13 7.67422e-13 4.0393e-13 -77.524 8.40829 0.89596 17.6862 -54.9388 -119.574 0.0293923 -4.8864 0.688426 3.97484e-09 -1.52527e-08 -8.54974e-10 6.87499e-09 -2.63327e-08 -1.46939e-09 3.97483e-09 -1.52527e-08 -8.54965e-10 -7.73091 5.47488 -0.417314 3.97484e-09 -1.52526e-08 -8.54966e-10 -2.90554 0.965183 -0.102902 3.97483e-09 -1.52527e-08 -8.54969e-10 -10.2786 0.731801 -0.0259123 3.97483e-09 -1.52527e-08 -8.54978e-10 -2.22167 -0.733487 0.20892 -2.03217e-16 0.0 -3.88251e-19 -63.6436 -59.4874 -75.4286 -7.36926 82.5255 7.565 -6.67516 -23.068 -11.6377 2.03217e-16 0.0 3.88251e-19 68.2075 -70.5281 79.4183 3.22484 75.7542 -3.73462 -0.547128 -12.6983 -3.32988
49.9652 67.665 -20.4892 -0.5147 -38.706 25.0381 3.64184 45.6971 -2.76442 -2.98526 -12.0017 -0.600182 1.46452 7.49912 0.394474 -10.1705 -0.397524 0.104564 -0.0 0.0 0.0 -0.0 0.0 0.0 5.15338e-13 8.6193e-13 3.40468e-13 64.1702 26.1502 18.7946 -16.3445 -55.7133 122.491 -0.631637 21.9795 3.25177 5.62155e-09 -2.54859e-10 5.42884e-09 9.79936e-09 -7.98186e-10 9.28661e-09 5.62156e-09 -2.54866e-10 5.42883e-09 7.73091 5.47488 0.417314 5.62155e-09 -2.54862e-10 5.42884e-09 2.90554 0.965183 0.102902 5.62156e-09 -2.54869e-10 5.42884e-09 10.2786 0.731801 0.0259123 5.62155e-09 -2.54861e-10 5.42886e-09 2.22167 -0.733487 -0.20892 5.15096e-13 8.6193e-13 3.4017e-13 -77.6364 8.29851 0.906838 17.669 -54.9494 -119.613 0.0291648 -4.86903 0.685966 5.12184e-09 -1.7956e-08 -6.37625e-10 8.85394e-09 -3.09755e-08 -1.08947e-09 5.12184e-09 -1.7956e-08 -6.37619e-10 -7.73091 5.47488 -0.417314 5.12184e-09 -1.79559e-08 -6.37619e-10 -2.90554 0.965183 -0.102902 5.12183e-09 -1.7956e-08 -6.37624e-10 -10.2786 0.731801 -0.0259123 5.12183e-09 -1.7956e-08 -6.37631e-10 -2.22167 -0.733487 0.20892 -2.03217e-16 0.0 -3.88251e-19 -64.3526 -59.5805 -76.1268 -7.66015 82.7745 7.85611 -6.7289 -23.1263 -11.7139 2.03217e-16 0.0 3.88251e-19 69.1337 -70.781 80.3348 3.27477 75.9196 -3.78372 -0.534865 -12.6702 -3.29059
49.9984 67.5563 -20.5584 -0.4326 -38.5804 25.1638 3.71568 45.8352 -3.01021 -2.73068 -12.0138 -0.627047 1.14836 7.54817 0.458679 -10.1251 -0.543688 0.25832 -0.0 0.0 0.0 -0.0 0.0 0.0 4.5214e-13 8.80137e-13 4.02342e-13 63.8313 26.2769 18.9633 -16.3743 -55.6971 122.427 -0.629104 21.9382 3.24501 5.57358e-09 -1.3085e-09 4.88702e-09 9.70951e-09 -2.60528e-09 8.35028e-09 5.57359e-09 -1.30851e-09 4.88701e-09 7.73091 5.47488 0.417314 5.57358e-09 -1.3085e-09 4.88702e-09 2.90554 0.965183 0.102902 5.57359e-09 -1.30851e-09 4.88702e-09 10.2786 0.731801 0.0259123 5.57358e-09 -1.3085e-09 4.88704e-09 2.22167 -0.733487 -0.20892 4.51933e-13 8.8015e-13 4.02043e-13 -77.9241 8.05022 0.980012 17.6452 -54.9639 -119.665 0.0283476 -4.8011 0.676349 4.35536e-09 -1.70606e-08 -9.92725e-10 7.53147e-09 -2.94521e-08 -1.70745e-09 4.35536e-09 -1.70606e-08 -9.92721e-10 -7.73091 5.47488 -0.417314 4.35536e-09 -1.70606e-08 -9.92722e-10 -2.90554 0.965183 -0.102902 4.35536e-09 -1.70606e-08 -9.92726e-10 -10.2786 0.731801 -0.0259123 4.35536e-09 -1.70606e-08 -9.92735e-10 -2.22167 -0.733487 0.20892 -2.03217e-16 0.0 -3.88251e-19 -65.0579 -59.6613 -76.8117 -7.97224 83.0234 8.16839 -6.78552 -23.1857 -11.7946 2.03217e-16 0.0 3.88251e-19 70.0351 -71.0347 81.2293 3.32405 76.079 -3.83217 -0.52314 -12.6434 -3.25234
